Battleship.2012.HD.CAM.XViD-26K
 
http://www.imdb.com/title/tt1440129/

Plot:
A fleet of ships is forced to do battle with an armada of unknown origins in order to discover and thwart their destructive goals.

Sources - VIDEO: CHINA HD VDEO....Thanks 
         AUDIO: 26K cam audio...Thanks 

Video
ID                                       : 0
Format                                   : MPEG-4 Visual
Format profile                           : Advanced Simple@L5
Format settings, BVOP                    : 2
Format settings, QPel                    : No
Format settings, GMC                     : No warppoints
Format settings, Matrix                  : Default (H.263)
Muxing mode                              : Packed bitstream
Codec ID                                 : XVID
Codec ID/Hint                            : XviD
Duration                                 : 2h 1mn
Bit rate                                 : 2 294 Kbps
Width                                    : 1 280 pixels
Height                                   : 570 pixels
Display aspect ratio                     : 2.25:1
Frame rate                               : 29.970 fps
Color space                              : YUV
Chroma subsampling                       : 4:2:0
Bit depth                                : 8 bits
Scan type                                : Progressive
Compression mode                         : Lossy
Bits/(Pixel*Frame)                       : 0.105
Stream size                              : 1.94 GiB (94%)
Writing library                          : XviD 64

Audio
ID                                       : 1
Format                                   : MPEG Audio
Format version                           : Version 1
Format profile                           : Layer 3
Codec ID                                 : 55
Codec ID/Hint                            : MP3
Duration                                 : 2h 1mn
Bit rate mode                            : Constant
Bit rate                                 : 128 Kbps
Channel(s)                               : 2 channels
Sampling rate                            : 44.1 KHz
Compression mode                         : Lossy
Stream size                              : 111 MiB (5%)
Alignment                                : Split accross interleaves
Interleave, duration                     : 16364 ms (490.44 video frames)


Notes -
encoded the video cropped, resized .. enjoy..